HIERARCHY
ROOT Hips
{
 OFFSET 0.000000 0.000000 0.000000
 CHANNELS 6 Xposition Yposition Zposition Yrotation Xrotation Zrotation
 JOINT Chest
 {
  OFFSET 0.000000 9.585900 0.002600
  CHANNELS 3 Yrotation Xrotation Zrotation
  JOINT Chest2
  {
   OFFSET 0.000000 9.601200 -0.005300
   CHANNELS 3 Yrotation Xrotation Zrotation
   JOINT Chest3
   {
    OFFSET 0.000000 9.561800 0.000000
    CHANNELS 3 Yrotation Xrotation Zrotation
    JOINT Chest4
    {
     OFFSET 0.000000 9.552100 0.000000
     CHANNELS 3 Yrotation Xrotation Zrotation
     JOINT Neck
     {
      OFFSET 0.000000 14.453000 0.000000
      CHANNELS 3 Yrotation Xrotation Zrotation
      JOINT Head
      {
       OFFSET 0.000000 8.936500 -0.011300
       CHANNELS 3 Yrotation Xrotation Zrotation
       End Site
       {
        OFFSET 0.000000 17.073600 -0.006000
       }
      }
     }
     JOINT RightCollar
     {
      OFFSET -2.921100 9.558500 0.000000
      CHANNELS 3 Yrotation Xrotation Zrotation
      JOINT RightShoulder
      {
       OFFSET -13.519700 0.000000 0.000000
       CHANNELS 3 Yrotation Xrotation Zrotation
       JOINT RightElbow
       {
        OFFSET 0.000000 -29.696600 0.000000
        CHANNELS 3 Yrotation Xrotation Zrotation
        JOINT RightWrist
        {
         OFFSET 0.000000 -24.004700 0.000000
         CHANNELS 3 Yrotation Xrotation Zrotation
         End Site
         {
          OFFSET 0.000000 -17.728500 0.000000
         }
        }
       }
      }
     }
     JOINT LeftCollar
     {
      OFFSET 2.921100 9.558500 0.000000
      CHANNELS 3 Yrotation Xrotation Zrotation
      JOINT LeftShoulder
      {
       OFFSET 13.519700 0.000000 0.000000
       CHANNELS 3 Yrotation Xrotation Zrotation
       JOINT LeftElbow
       {
        OFFSET 0.000000 -29.696600 0.000000
        CHANNELS 3 Yrotation Xrotation Zrotation
        JOINT LeftWrist
        {
         OFFSET 0.000000 -24.004700 0.000000
         CHANNELS 3 Yrotation Xrotation Zrotation
         End Site
         {
          OFFSET 0.000000 -17.728500 0.000000
         }
        }
       }
      }
     }
    }
   }
  }
 }
 JOINT RightHip
 {
  OFFSET -7.771700 -0.012900 -0.001300
  CHANNELS 3 Yrotation Xrotation Zrotation
  JOINT RightKnee
  {
   OFFSET 0.000000 -40.869800 0.001200
   CHANNELS 3 Yrotation Xrotation Zrotation
   JOINT RightAnkle
   {
    OFFSET 0.000000 -39.717900 0.002100
    CHANNELS 3 Yrotation Xrotation Zrotation
    JOINT RightToe
    {
     OFFSET 0.000000 -4.965400 11.033500
     CHANNELS 3 Yrotation Xrotation Zrotation
     End Site
     {
      OFFSET 0.000000 -1.423100 5.872300
     }
    }
   }
  }
 }
 JOINT LeftHip
 {
  OFFSET 7.771700 -0.012900 -0.001300
  CHANNELS 3 Yrotation Xrotation Zrotation
  JOINT LeftKnee
  {
   OFFSET 0.000000 -40.869800 0.001200
   CHANNELS 3 Yrotation Xrotation Zrotation
   JOINT LeftAnkle
   {
    OFFSET 0.000000 -39.717900 0.002100
    CHANNELS 3 Yrotation Xrotation Zrotation
    JOINT LeftToe
    {
     OFFSET 0.000000 -4.965400 11.033500
     CHANNELS 3 Yrotation Xrotation Zrotation
     End Site
     {
      OFFSET 0.000000 -1.423100 5.872300
     }
    }
   }
  }
 }
}
MOTION
Frames: 7
Frame Time: 0.008333
0.000000 85.388000 0.000000 0.000000 -5.767877 0.000000 0.000000 11.653817 0.000000 0.000000 -5.885947 0.000000 0.000000 -0.000000 0.000000 0.000000 -0.000000 0.000000 0.000000 12.528835 0.000000 0.000000 0.711642 0.000000 0.000000 -0.000000 0.000000 0.000000 0.000000 -90.000000 0.000000 -2.309062 0.000000 0.000000 2.309062 0.000000 0.000000 -0.000000 0.000000 0.000000 -0.000000 90.000000 0.000000 -2.309062 0.000000 0.000000 2.309062 0.000000 0.000000 8.520406 0.000000 0.000000 1.905762 0.000000 -0.000000 -4.658285 0.000000 0.000000 -0.000000 0.000000 0.000000 8.520406 0.000000 0.000000 1.905762 0.000000 -0.000000 -4.658285 0.000000 0.000000 -0.000000 0.000000
-14.556406 55.349161 16.007771 -178.500793 -16.430635 -1.922469 0.573842 15.691647 0.633874 0.047824 1.509792 0.075213 0.091161 2.529536 0.119573 0.539708 13.964836 0.755402 0.763882 12.165668 -1.423274 1.098632 -12.883981 -1.638291 0.543992 -0.064217 2.404425 2.213284 -5.180984 -8.437557 -77.142806 -58.619423 109.381019 -14.655282 -7.319525 -7.808840 -6.618335 -1.896809 2.182589 2.106971 -11.392595 8.575770 55.570622 -55.828506 -97.993977 5.863069 -6.324731 6.157410 -1.204924 -58.388268 12.238792 -93.761333 87.198000 -98.149378 -11.125178 -22.213674 15.286287 0.072683 -0.150436 0.032578 10.546648 -54.981513 -6.168152 110.541927 77.159101 107.858114 -7.614321 -23.610058 1.893924 0.080858 0.249493 0.035455
-14.560224 55.349286 16.006758 -178.507440 -16.426404 -1.909341 0.591197 15.684183 0.614143 0.063615 1.505464 0.068598 0.072452 2.532685 0.131677 0.550945 13.960725 0.753222 0.839103 12.198605 -1.400735 1.154669 -12.843372 -1.619757 0.543742 -0.058878 2.421877 2.200266 -5.168716 -8.429736 -77.140292 -58.608443 109.388690 -14.655678 -7.319456 -7.805334 -6.585459 -1.925605 2.168261 2.088342 -11.381659 8.600880 55.657831 -55.848277 -98.023897 5.890413 -6.288256 6.132703 -1.170942 -58.393090 12.224669 -93.698580 87.190044 -98.071637 -11.268599 -22.206000 15.318381 0.046607 -0.136555 0.031686 10.562309 -54.983338 -6.190127 110.539981 77.153417 107.850355 -7.607323 -23.606227 1.901991 0.074961 0.245238 0.027457
-14.563176 55.348953 16.006479 -178.514433 -16.415309 -1.902706 0.624213 15.667750 0.605773 0.041290 1.509585 0.077655 0.088868 2.526988 0.124552 0.595524 13.941329 0.744235 0.884212 12.252738 -1.354099 1.219336 -12.799301 -1.604795 0.510506 -0.040642 2.454769 2.177456 -5.153691 -8.416917 -77.149493 -58.608671 109.403343 -14.661116 -7.314958 -7.798276 -6.617789 -1.921233 2.188644 2.068228 -11.367281 8.610673 55.743583 -55.864696 -98.051400 5.884770 -6.310951 6.142560 -1.148012 -58.406223 12.213674 -93.707802 87.188652 -98.071539 -11.336047 -22.201293 15.333383 0.005504 -0.134166 0.029432 10.575137 -54.993927 -6.202422 110.541222 77.153234 107.850296 -7.608028 -23.602269 1.904006 0.078405 0.241838 0.026668
-14.564868 55.348732 16.004643 -178.513350 -16.411386 -1.906944 0.630553 15.661584 0.609751 0.046726 1.506518 0.074680 0.114403 2.517279 0.119274 0.610001 13.939849 0.748030 0.892928 12.284440 -1.326696 1.342099 -12.730098 -1.594114 0.501217 -0.037347 2.471383 2.146281 -5.123511 -8.392991 -77.180285 -58.628742 109.431109 -14.663262 -7.312620 -7.795251 -6.641878 -1.922601 2.199318 2.094104 -11.378774 8.610039 55.749127 -55.860987 -98.046833 5.900122 -6.273295 6.111026 -1.147920 -58.408064 12.209282 -93.710515 87.190879 -98.072710 -11.312668 -22.207191 15.329195 0.017997 -0.135820 0.028083 10.566620 -54.999418 -6.198314 110.550608 77.154611 107.859099 -7.602667 -23.600925 1.904796 0.074835 0.241653 0.025959
-14.567418 55.347831 16.003551 -178.515542 -16.400834 -1.905069 0.639724 15.648371 0.609015 0.073002 1.500787 0.069257 0.105800 2.519252 0.122532 0.609150 13.940062 0.750847 1.013785 12.343304 -1.301311 1.383753 -12.681782 -1.576579 0.495384 -0.038632 2.478677 2.149549 -5.096042 -8.376242 -77.196525 -58.635620 109.445115 -14.663370 -7.323274 -7.787656 -6.630953 -1.944263 2.197413 2.174774 -11.412792 8.581353 55.653520 -55.855394 -97.996806 5.897322 -6.269896 6.110801 -1.144480 -58.418786 12.202235 -93.748800 87.194393 -98.114933 -11.280090 -22.210796 15.323638 0.052726 -0.136524 0.029051 10.557226 -55.016046 -6.208778 110.551165 77.140687 107.858286 -7.583676 -23.589790 1.898210 0.061593 0.234203 0.021241
-14.569667 55.346533 16.002506 -178.523815 -16.387930 -1.902661 0.687737 15.632702 0.614218 0.039537 1.502159 0.073542 0.125810 2.514058 0.121108 0.609428 13.940152 0.751992 1.141534 12.408078 -1.275501 1.430964 -12.629741 -1.562634 0.487374 -0.040231 2.486172 2.156688 -5.068747 -8.358925 -77.177151 -58.646144 109.457014 -14.661887 -7.350397 -7.780736 -6.613946 -1.973498 2.195767 2.186085 -11.410915 8.563977 55.650063 -55.861657 -97.978333 5.893523 -6.321366 6.151993 -1.137974 -58.430847 12.198502 -93.760232 87.201575 -98.129220 -11.249977 -22.221160 15.320094 0.063990 -0.131684 0.027045 10.557148 -55.032053 -6.211247 110.565007 77.133319 107.869898 -7.581902 -23.587722 1.895789 0.061502 0.230808 0.020091
